<?xml version="1.0" standalone="no"?>
<!DOCTYPE svg PUBLIC "-//W3C//DTD SVG 20010904//EN"
 "http://www.w3.org/TR/2001/REC-SVG-20010904/DTD/svg10.dtd">
<svg version="1.0" xmlns="http://www.w3.org/2000/svg"
 width="341.000000pt" height="341.000000pt" viewBox="0 0 341.000000 341.000000"
 preserveAspectRatio="xMidYMid meet">
<metadata>
Created by potrace 1.11, written by Peter Selinger 2001-2013
</metadata>
<g transform="translate(0.000000,341.000000) scale(0.100000,-0.100000)"
fill="#000000" stroke="none">
<path d="M1762 2770 c-16 -4 11 -52 184 -330 l202 -324 -18 -26 c-10 -14 -110
-151 -223 -305 -112 -154 -203 -282 -201 -284 5 -6 356 -7 381 -1 13 3 55 51
105 120 119 163 333 463 342 477 4 8 -74 139 -200 335 -114 178 -211 327 -215
332 -9 10 -323 15 -357 6z"/>
<path d="M2616 2770 c-8 -3 -55 -61 -104 -130 -76 -106 -88 -128 -79 -145 5
-11 48 -77 94 -148 l84 -129 86 134 c47 73 131 195 185 272 55 76 97 141 94
144 -8 7 -341 9 -360 2z"/>
<path d="M3117 2766 c-17 -14 -259 -356 -316 -447 l-41 -65 3 -155 3 -154 143
-225 c133 -209 146 -226 172 -225 15 0 31 4 35 8 4 4 8 229 8 500 l1 492 130
1 c72 1 136 2 143 3 9 1 12 36 12 139 l0 138 -139 1 c-92 1 -145 -3 -154 -11z"/>
<path d="M1510 2746 c-175 -51 -325 -174 -399 -328 -153 -319 -34 -686 274
-848 53 -28 163 -66 169 -58 1 1 52 68 112 148 l110 145 -91 0 c-75 0 -98 4
-135 23 -67 35 -127 98 -143 149 -1 5 112 8 252 9 l254 1 24 29 c13 16 35 45
49 65 l25 36 -37 62 c-20 34 -42 65 -48 69 -6 4 -127 7 -269 8 -142 1 -260 4
-263 7 -4 3 5 26 19 49 61 105 147 153 272 152 45 0 90 -5 103 -12 12 -7 22
-9 22 -4 0 5 -43 71 -96 148 -53 76 -98 144 -101 151 -8 21 -28 21 -103 -1z"/>
<path d="M10 2750 c-4 -3 -8 -287 -8 -632 l0 -628 34 -1 c19 0 79 0 134 0 55
0 106 0 114 0 12 1 14 55 13 341 0 187 2 342 4 344 3 3 114 -150 248 -340 213
-301 246 -344 269 -345 103 -3 273 0 280 5 5 3 9 40 8 83 -1 71 -5 82 -36 127
-175 255 -178 609 -8 860 36 54 41 69 43 124 2 34 0 63 -4 63 -36 7 -301 2
-304 -6 -2 -5 -3 -184 -3 -398 1 -213 -2 -387 -5 -387 -6 0 -49 69 -269 430
-78 129 -161 264 -182 300 l-40 65 -140 0 c-77 0 -143 -2 -148 -5z"/>
<path d="M2574 1977 c-11 -18 -55 -80 -97 -139 -42 -58 -77 -110 -77 -116 0
-7 108 -182 137 -221 2 -2 87 -4 190 -4 158 -1 187 2 185 14 -4 17 -305 498
-312 498 -3 0 -14 -14 -26 -32z"/>
<path d="M293 1282 l-63 -3 0 -109 c0 -61 3 -111 8 -111 4 -1 37 -2 75 -3 58
-1 67 1 67 16 0 15 -9 18 -55 18 -54 0 -55 0 -55 30 0 29 1 30 49 30 41 0 49
3 47 17 -2 14 -13 18 -47 18 -42 0 -44 2 -47 31 l-3 32 55 -3 c47 -2 56 1 56
16 0 22 -12 25 -87 21z"/>
<path d="M413 1282 c-13 -2 -23 -10 -23 -18 0 -14 4 -16 38 -17 26 -2 28 -10
27 -101 -1 -66 2 -86 13 -91 8 -3 17 -4 19 -1 2 2 4 45 5 95 0 50 4 92 9 92 5
1 19 2 31 3 19 1 37 35 20 37 -35 3 -122 3 -139 1z"/>
<path d="M954 1278 c-41 -10 -59 -47 -56 -115 3 -91 39 -125 107 -103 29 10
52 40 46 60 -3 12 -27 4 -39 -12 -16 -22 -45 -23 -63 -2 -19 24 -15 115 7 131
24 17 31 16 51 -7 17 -20 53 -28 53 -11 0 15 -39 58 -57 63 -10 3 -32 1 -49
-4z"/>
<path d="M1566 1279 c-30 -8 -48 -29 -53 -62 -4 -25 41 -67 71 -67 13 0 32 -7
41 -16 34 -35 -22 -54 -94 -33 -22 6 -25 -27 -4 -36 61 -25 126 -10 141 33 14
41 -4 70 -52 84 -23 6 -48 18 -56 25 -13 13 -13 16 4 29 23 16 40 18 66 4 21
-11 50 13 30 25 -24 15 -67 21 -94 14z"/>
<path d="M2083 1282 c-37 -6 -60 -45 -62 -107 -2 -85 28 -127 87 -121 46 5 73
35 78 85 l4 41 -39 0 c-25 0 -41 -5 -44 -15 -7 -16 8 -29 22 -20 16 10 22 -13
9 -35 -29 -45 -78 -12 -78 53 0 68 33 100 71 71 8 -6 24 -14 36 -17 22 -5 22
-4 8 23 -15 30 -56 48 -92 42z"/>
<path d="M2349 1282 c-58 -7 -82 -79 -39 -114 12 -10 32 -18 44 -18 12 0 31
-6 41 -14 17 -12 17 -16 5 -31 -13 -16 -54 -18 -99 -4 -8 2 -16 -4 -19 -13 -2
-12 7 -20 36 -28 67 -17 119 3 125 50 6 39 -13 59 -70 76 -57 16 -62 24 -37
48 18 19 24 19 60 6 20 -8 29 -8 35 2 4 6 6 15 3 19 -7 12 -58 25 -85 21z"/>
<path d="M2693 1282 c-29 -4 -53 -38 -53 -74 0 -31 8 -37 70 -58 53 -18 65
-46 25 -56 -15 -4 -42 -2 -60 4 -28 8 -35 7 -40 -6 -5 -15 8 -30 30 -33 82
-12 121 3 130 50 7 37 -12 59 -63 74 -35 10 -48 20 -50 35 -4 27 36 39 68 22
18 -10 24 -9 31 1 17 27 15 28 -56 43 -5 1 -20 0 -32 -2z"/>
<path d="M2820 1282 c-6 -2 -10 -12 -10 -21 0 -13 7 -18 28 -17 l27 1 3 -97
c1 -54 4 -98 7 -98 30 0 35 15 35 106 l0 93 27 -2 c19 -1 29 3 31 15 3 14 -8
17 -68 20 -39 1 -75 2 -80 0z"/>
<path d="M32 1168 c2 -93 6 -113 18 -113 10 0 16 13 18 43 3 39 10 48 36 43
41 -8 86 28 86 70 0 48 -30 69 -100 69 l-61 0 3 -112z m111 61 c17 -28 1 -49
-38 -49 -33 0 -35 2 -35 33 0 31 2 33 31 33 18 -1 36 -8 42 -17z"/>
<path d="M630 1170 c0 -60 3 -111 8 -111 4 -1 37 -2 75 -3 58 -1 67 1 67 16 0
15 -9 18 -55 18 l-55 0 0 95 c0 88 -1 95 -20 95 -19 0 -20 -7 -20 -110z"/>
<path d="M813 1170 c0 -87 3 -110 15 -115 8 -3 17 -3 20 -1 2 3 5 55 6 115 1
106 0 111 -20 111 -19 0 -20 -6 -21 -110z"/>
<path d="M1100 1168 l0 -113 75 0 c66 -1 75 1 75 17 0 15 -9 18 -55 18 -55 0
-55 0 -55 31 0 25 4 30 23 29 57 -5 75 0 70 18 -3 15 -14 18 -49 17 -43 -1
-44 0 -44 30 l0 32 55 -2 c48 -2 55 0 55 16 0 17 -8 19 -75 19 l-75 0 0 -112z"/>
<path d="M1293 1168 c2 -97 4 -111 20 -114 15 -2 17 7 17 79 l1 82 33 -60 c48
-84 61 -100 82 -102 18 -1 19 7 19 113 0 101 -2 114 -17 114 -15 0 -18 -12
-20 -82 -2 -60 -6 -77 -12 -63 -5 11 -25 48 -45 82 -27 46 -42 63 -58 63 -21
0 -21 -3 -20 -112z"/>
<path d="M1713 1171 c0 -89 2 -111 15 -116 8 -3 16 -4 18 -2 2 2 5 54 6 115 3
108 2 112 -18 112 -21 0 -21 -5 -21 -109z"/>
<path d="M1803 1166 c1 -97 3 -113 16 -111 13 1 17 18 19 81 l3 78 26 -44 c57
-100 72 -118 90 -114 16 4 18 18 18 115 0 103 -1 110 -20 107 -17 -3 -19 -10
-17 -78 2 -86 -2 -84 -61 23 -23 42 -37 57 -53 57 -21 0 -22 -3 -21 -114z"/>
<path d="M2486 1210 c27 -54 35 -80 32 -113 -2 -36 0 -42 17 -42 16 0 20 7 20
45 1 31 12 65 37 113 34 65 35 67 14 67 -16 0 -28 -12 -46 -47 l-23 -48 -21
47 c-16 36 -26 48 -43 48 -23 0 -22 -1 13 -70z"/>
<path d="M2990 1170 c0 -60 3 -110 8 -111 4 -1 37 -2 75 -4 59 -2 67 0 67 17
0 15 -8 18 -55 18 -54 0 -55 0 -55 30 0 29 2 30 44 30 45 0 69 16 47 30 -7 4
-30 6 -52 5 -39 -2 -40 -1 -37 29 3 30 5 31 51 31 36 0 51 5 58 18 9 16 3 17
-71 17 l-80 0 0 -110z"/>
<path d="M3185 1168 c0 -93 3 -113 15 -113 12 0 16 17 18 75 l4 75 22 -60 c31
-80 47 -81 75 -5 12 33 24 60 26 60 3 0 3 -25 1 -57 -4 -68 1 -92 20 -89 8 1
14 5 14 9 0 4 0 54 0 112 0 103 -1 105 -23 105 -19 0 -26 -11 -46 -70 -21 -62
-41 -84 -41 -44 0 8 -4 22 -9 32 -5 9 -15 32 -21 50 -9 22 -19 32 -34 32 -21
0 -22 -4 -21 -112z"/>
<path d="M1854 885 c-38 -16 -63 -61 -58 -105 5 -42 28 -67 70 -76 42 -8 85
28 86 74 1 18 -1 34 -4 37 -2 2 -21 0 -41 -6 -41 -11 -51 -34 -12 -27 31 6 40
-5 25 -32 -13 -24 -62 -27 -80 -5 -37 44 9 128 64 118 19 -4 26 -1 26 11 0 9
-3 16 -7 17 -5 0 -15 2 -24 4 -8 1 -29 -3 -45 -10z"/>
<path d="M2148 882 l-48 -3 0 -105 c0 -87 3 -106 16 -111 19 -7 35 14 31 42
-1 15 5 21 23 23 55 6 69 13 84 44 21 42 20 63 -5 87 -25 23 -40 27 -101 23z
m71 -60 c13 -25 -2 -46 -36 -48 -28 -1 -45 25 -35 54 7 19 60 15 71 -6z"/>
<path d="M2004 842 c-42 -28 -35 -96 12 -108 49 -12 88 60 54 101 -13 16 -48
20 -66 7z m52 -39 c5 -19 2 -30 -10 -39 -33 -24 -57 5 -41 48 10 25 44 19 51
-9z"/>
<path d="M2416 818 c-11 -21 -13 -35 -6 -42 5 -5 10 -29 10 -52 0 -49 19 -69
55 -60 30 8 33 22 6 29 -14 3 -19 14 -19 40 0 26 5 36 19 40 25 7 25 27 0 34
-11 3 -21 13 -24 24 -8 28 -23 23 -41 -13z"/>
<path d="M2524 842 c-6 -4 -10 -45 -9 -92 0 -78 2 -85 20 -85 18 0 20 7 20 87
0 84 -8 106 -31 90z"/>
<path d="M719 820 c-5 -27 -3 -112 3 -116 4 -3 8 7 8 21 0 18 4 25 13 22 6 -2
22 -1 35 4 28 10 30 54 4 68 -19 10 -61 11 -63 1z m66 -35 c0 -14 -8 -21 -27
-23 -24 -3 -28 0 -28 23 0 23 4 26 28 23 19 -2 27 -9 27 -23z"/>
<path d="M838 819 c-13 -7 -18 -23 -18 -52 0 -48 13 -67 47 -67 45 0 61 87 21
114 -26 19 -27 19 -50 5z m50 -21 c9 -12 8 -47 -3 -75 -12 -34 -55 5 -50 45 2
15 4 30 4 35 1 12 38 8 49 -5z"/>
<path d="M920 824 c0 -20 33 -124 40 -124 4 0 13 19 20 43 l13 42 11 -38 c6
-21 15 -39 20 -40 9 -2 36 82 36 113 0 28 -18 -11 -26 -55 -6 -33 -8 -36 -15
-20 -4 11 -10 32 -13 48 -9 39 -23 33 -31 -13 -9 -51 -21 -51 -30 0 -4 22 -11
42 -16 46 -5 3 -9 2 -9 -2z"/>
<path d="M1085 821 c-3 -2 -5 -31 -5 -63 l0 -58 40 0 c22 0 40 5 40 11 0 5 -5
7 -11 4 -16 -11 -59 4 -59 20 0 15 7 18 43 18 28 0 20 15 -10 19 -41 4 -36 32
7 39 19 4 33 8 30 9 -10 5 -70 6 -75 1z"/>
<path d="M1193 822 c-12 -9 -14 -122 -2 -122 5 0 9 11 9 25 0 18 5 25 20 25
13 0 22 -9 26 -25 3 -14 10 -25 15 -25 12 0 11 7 -2 32 -8 14 -8 23 0 31 13
13 15 44 3 51 -15 9 -59 14 -69 8z m60 -26 c3 -8 0 -19 -6 -23 -21 -16 -42 -9
-45 15 -3 18 1 22 21 22 14 0 27 -6 30 -14z"/>
<path d="M1302 810 c-6 -16 -7 -72 -3 -102 1 -5 20 -8 43 -8 23 0 38 3 35 7
-4 3 -20 6 -37 5 -23 0 -30 4 -30 19 0 10 3 19 8 20 49 5 67 19 24 19 -25 0
-32 4 -32 20 0 16 7 20 36 20 43 0 37 17 -6 18 -22 0 -33 -5 -38 -18z"/>
<path d="M1406 822 c-3 -3 -6 -32 -6 -64 l0 -58 33 0 c18 0 38 5 45 12 17 17
15 83 -3 98 -17 14 -60 22 -69 12z m65 -39 c3 -57 -7 -73 -40 -68 -11 1 -16
13 -17 41 -1 49 2 54 32 54 19 0 24 -5 25 -27z"/>
<path d="M1548 816 c-2 -6 -4 -33 -3 -61 l0 -50 40 0 40 0 2 50 c1 27 -3 55
-8 62 -13 14 -67 14 -71 -1z m67 -26 c0 -9 -11 -16 -27 -18 -23 -3 -28 1 -28
18 0 17 5 21 28 18 16 -2 27 -9 27 -18z m3 -53 c2 -10 -1 -18 -7 -18 -40 -5
-46 -2 -49 19 -3 20 0 22 25 19 16 -2 29 -11 31 -20z"/>
<path d="M1640 823 c0 -5 9 -21 20 -38 11 -16 20 -43 20 -60 0 -22 3 -26 9
-15 6 8 8 17 5 22 -3 4 5 26 16 49 12 22 19 43 16 46 -2 3 -12 -10 -21 -28
l-17 -32 -20 31 c-20 32 -28 39 -28 25z"/>
<path d="M2314 809 c-28 -10 -54 -47 -54 -77 0 -30 42 -72 73 -72 13 0 31 6
42 13 22 17 11 41 -13 28 -20 -10 -70 5 -56 18 5 4 28 14 52 21 45 14 52 28
25 52 -26 22 -45 26 -69 17z m36 -39 c0 -5 -4 -10 -9 -10 -5 0 -18 -3 -28 -7
-16 -6 -16 -5 -4 10 15 19 41 23 41 7z"/>
<path d="M2623 809 c-12 -4 -29 -20 -39 -34 -35 -54 22 -131 82 -110 42 15 43
36 2 33 -36 -2 -62 8 -53 21 2 5 25 14 50 20 44 11 53 23 37 48 -12 19 -55 31
-79 22z m37 -39 c0 -5 -4 -10 -9 -10 -5 0 -18 -3 -28 -7 -16 -6 -16 -5 -4 10
15 19 41 23 41 7z"/>
<path d="M1970 711 c-38 -8 -72 -24 -107 -51 -39 -30 -14 -29 46 2 38 19 79
32 119 35 34 3 62 10 62 14 0 10 -69 10 -120 0z"/>
</g>
</svg>
